<svg xmlns="http://www.w3.org/2000/svg" xmlns:xlink="http://www.w3.org/1999/xlink" width="16" height="16"><defs><linearGradient id="b"><stop offset="0" stop-color="#ffffff"/><stop offset="1" stop-color="#ffffff"/></linearGradient><linearGradient id="c" x1="-904" x2="-890" y1="970.362" y2="970.362" gradientUnits="userSpaceOnUse" xlink:href="#a"/><linearGradient id="a"><stop offset="0" stop-color="#fc6a28"/><stop offset="1" stop-color="#f94045"/></linearGradient><linearGradient id="d" x1="-900" x2="-898" y1="970.362" y2="970.362" gradientUnits="userSpaceOnUse" xlink:href="#b"/><linearGradient id="e" x1="-896" x2="-894" y1="970.362" y2="970.362" gradientUnits="userSpaceOnUse" xlink:href="#b"/></defs><g transform="translate(905 -962.362)"><circle cx="-897" cy="970.362" r="7" style="marker:none" fill="url(#c)" color="#000" enable-background="accumulate" overflow="visible"/><path style="line-height:normal;text-indent:0;text-align:start;text-decoration-line:none;text-decoration-style:solid;text-decoration-color:#000;text-transform:none;block-progression:tb;white-space:normal;isolation:auto;mix-blend-mode:normal;solid-color:#000;solid-opacity:1" fill="url(#d)" fill-rule="evenodd" d="M-899.016 966.848a1 1 0 0 0-.984 1.013v5a1 1 0 1 0 2 0v-5a1 1 0 0 0-1.016-1.013z" color="#000" enable-background="accumulate" font-family="sans-serif" font-weight="400" overflow="visible"/><path style="line-height:normal;text-indent:0;text-align:start;text-decoration-line:none;text-decoration-style:solid;text-decoration-color:#000;text-transform:none;block-progression:tb;white-space:normal;isolation:auto;mix-blend-mode:normal;solid-color:#000;solid-opacity:1" fill="url(#e)" fill-rule="evenodd" d="M-895.016 966.848a1 1 0 0 0-.984 1.013v5a1 1 0 1 0 2 0v-5a1 1 0 0 0-1.016-1.013z" color="#000" enable-background="accumulate" font-family="sans-serif" font-weight="400" overflow="visible"/></g></svg>